# xmcd
#
# Track frame offsets: 
#        150
#        13490
#        26285
#        39234
#        53411
#        65881
#        79168
#        91737
#        104564
#        117275
#        132359
#        146658
#        159953
#        174500
#        188450
#        202394
#        214636
#        228807
#
# Disc length: 3221 seconds
#
# Revision: 1
# Processed by: cddbd v1.5.2PL0 Copyright (c) Steve Scherf et al.
# Submitted via: ExactAudioCopy v0.95b2
#
DISCID=f00c9312
DTITLE=Buddy Moss - The Essential Buddy Moss Disc 2
DYEAR=1900
DGENRE=Blues
TTITLE0=Gravy Server
TTITLE1=Can't Use You No More
TTITLE2=Broke Down Engine
TTITLE3=Too Dog Gone Jealous
TTITLE4=Some Lonesome Day
TTITLE5=Next Door Man (With The Georgia Browns)
TTITLE6=Jinx Man Blues
TTITLE7=You Need A Woman
TTITLE8=I'm Sitting Here Tonight
TTITLE9=Stop Hanging Around
TTITLE10=Dirty Mistreater ( With Curley Weaver)
TTITLE11=Shake It All Night Long
TTITLE12=Undertaker Blues
TTITLE13=Worrysome Woman
TTITLE14=My Baby Don't Pay Me No Mind
TTITLE15=Dough Rolling Papa
TTITLE16=Broke Down Engine No. 2
TTITLE17=Someday Baby
EXTD=hale
EXTT0=
EXTT1=
EXTT2=
EXTT3=
EXTT4=
EXTT5=
EXTT6=
EXTT7=
EXTT8=
EXTT9=
EXTT10=
EXTT11=
EXTT12=
EXTT13=
EXTT14=
EXTT15=
EXTT16=
EXTT17=
PLAYORDER=
